<mxfile host="app.diagrams.net" agent="Mozilla/5.0 (Windows NT 10.0; Win64; x64) AppleWebKit/537.36 (KHTML, like Gecko) Chrome/137.0.0.0 Safari/537.36" version="27.1.4">
  <diagram name="Page-1" id="Jr2cEUMtwQT0fVHP7WNf">
    <mxGraphModel dx="2276" dy="777" grid="1" gridSize="10" guides="1" tooltips="1" connect="1" arrows="1" fold="1" page="1" pageScale="1" pageWidth="850" pageHeight="1100" math="0" shadow="0">
      <root>
        <mxCell id="0" />
        <mxCell id="1" parent="0" />
        <mxCell id="lrSbImKOXPvJsdLINHKg-3" style="edgeStyle=orthogonalEdgeStyle;rounded=0;orthogonalLoop=1;jettySize=auto;html=1;exitX=0.5;exitY=1;exitDx=0;exitDy=0;" parent="1" source="lrSbImKOXPvJsdLINHKg-1" edge="1">
          <mxGeometry relative="1" as="geometry">
            <mxPoint x="430" y="170" as="targetPoint" />
          </mxGeometry>
        </mxCell>
        <mxCell id="lrSbImKOXPvJsdLINHKg-1" value="Window" style="rounded=0;whiteSpace=wrap;html=1;" parent="1" vertex="1">
          <mxGeometry x="370" y="40" width="120" height="60" as="geometry" />
        </mxCell>
        <mxCell id="lrSbImKOXPvJsdLINHKg-4" value="Document" style="rounded=0;whiteSpace=wrap;html=1;" parent="1" vertex="1">
          <mxGeometry x="370" y="130" width="120" height="60" as="geometry" />
        </mxCell>
        <mxCell id="lrSbImKOXPvJsdLINHKg-5" value="HTML" style="rounded=0;whiteSpace=wrap;html=1;" parent="1" vertex="1">
          <mxGeometry x="370" y="230" width="120" height="60" as="geometry" />
        </mxCell>
        <mxCell id="lrSbImKOXPvJsdLINHKg-6" value="" style="endArrow=classic;html=1;rounded=0;entryX=0.5;entryY=0;entryDx=0;entryDy=0;exitX=0.5;exitY=1;exitDx=0;exitDy=0;" parent="1" source="lrSbImKOXPvJsdLINHKg-4" target="lrSbImKOXPvJsdLINHKg-5" edge="1">
          <mxGeometry width="50" height="50" relative="1" as="geometry">
            <mxPoint x="420" y="280" as="sourcePoint" />
            <mxPoint x="470" y="230" as="targetPoint" />
          </mxGeometry>
        </mxCell>
        <mxCell id="lrSbImKOXPvJsdLINHKg-27" style="edgeStyle=orthogonalEdgeStyle;rounded=0;orthogonalLoop=1;jettySize=auto;html=1;entryX=0.5;entryY=0;entryDx=0;entryDy=0;" parent="1" source="lrSbImKOXPvJsdLINHKg-11" target="lrSbImKOXPvJsdLINHKg-21" edge="1">
          <mxGeometry relative="1" as="geometry" />
        </mxCell>
        <mxCell id="lrSbImKOXPvJsdLINHKg-11" value="Head" style="whiteSpace=wrap;html=1;" parent="1" vertex="1">
          <mxGeometry x="120" y="380" width="120" height="60" as="geometry" />
        </mxCell>
        <mxCell id="lrSbImKOXPvJsdLINHKg-56" value="" style="edgeStyle=orthogonalEdgeStyle;rounded=0;orthogonalLoop=1;jettySize=auto;html=1;" parent="1" source="lrSbImKOXPvJsdLINHKg-12" target="lrSbImKOXPvJsdLINHKg-55" edge="1">
          <mxGeometry relative="1" as="geometry" />
        </mxCell>
        <mxCell id="lrSbImKOXPvJsdLINHKg-12" value="Body" style="whiteSpace=wrap;html=1;" parent="1" vertex="1">
          <mxGeometry x="620" y="380" width="120" height="60" as="geometry" />
        </mxCell>
        <mxCell id="lrSbImKOXPvJsdLINHKg-15" style="edgeStyle=orthogonalEdgeStyle;rounded=0;orthogonalLoop=1;jettySize=auto;html=1;entryX=0.625;entryY=-0.033;entryDx=0;entryDy=0;entryPerimeter=0;" parent="1" source="lrSbImKOXPvJsdLINHKg-5" target="lrSbImKOXPvJsdLINHKg-11" edge="1">
          <mxGeometry relative="1" as="geometry" />
        </mxCell>
        <mxCell id="lrSbImKOXPvJsdLINHKg-17" style="edgeStyle=orthogonalEdgeStyle;rounded=0;orthogonalLoop=1;jettySize=auto;html=1;entryX=0.592;entryY=0.05;entryDx=0;entryDy=0;entryPerimeter=0;" parent="1" source="lrSbImKOXPvJsdLINHKg-5" target="lrSbImKOXPvJsdLINHKg-12" edge="1">
          <mxGeometry relative="1" as="geometry" />
        </mxCell>
        <mxCell id="lrSbImKOXPvJsdLINHKg-31" style="edgeStyle=orthogonalEdgeStyle;rounded=0;orthogonalLoop=1;jettySize=auto;html=1;entryX=0;entryY=0.5;entryDx=0;entryDy=0;" parent="1" source="lrSbImKOXPvJsdLINHKg-18" target="lrSbImKOXPvJsdLINHKg-11" edge="1">
          <mxGeometry relative="1" as="geometry">
            <Array as="points">
              <mxPoint x="50" y="410" />
            </Array>
          </mxGeometry>
        </mxCell>
        <mxCell id="lrSbImKOXPvJsdLINHKg-34" value="" style="edgeStyle=orthogonalEdgeStyle;rounded=0;orthogonalLoop=1;jettySize=auto;html=1;" parent="1" source="lrSbImKOXPvJsdLINHKg-18" edge="1">
          <mxGeometry relative="1" as="geometry">
            <mxPoint x="-45" y="510" as="targetPoint" />
          </mxGeometry>
        </mxCell>
        <mxCell id="lrSbImKOXPvJsdLINHKg-18" value="meta" style="whiteSpace=wrap;html=1;" parent="1" vertex="1">
          <mxGeometry x="10" y="480" width="70" height="40" as="geometry" />
        </mxCell>
        <mxCell id="lrSbImKOXPvJsdLINHKg-39" value="" style="edgeStyle=orthogonalEdgeStyle;rounded=0;orthogonalLoop=1;jettySize=auto;html=1;" parent="1" source="lrSbImKOXPvJsdLINHKg-19" edge="1">
          <mxGeometry relative="1" as="geometry">
            <mxPoint x="110" y="560" as="targetPoint" />
            <Array as="points">
              <mxPoint x="145" y="540" />
              <mxPoint x="111" y="540" />
            </Array>
          </mxGeometry>
        </mxCell>
        <mxCell id="lrSbImKOXPvJsdLINHKg-44" style="edgeStyle=orthogonalEdgeStyle;rounded=0;orthogonalLoop=1;jettySize=auto;html=1;exitX=0.75;exitY=1;exitDx=0;exitDy=0;" parent="1" source="lrSbImKOXPvJsdLINHKg-19" target="lrSbImKOXPvJsdLINHKg-42" edge="1">
          <mxGeometry relative="1" as="geometry" />
        </mxCell>
        <mxCell id="lrSbImKOXPvJsdLINHKg-19" value="meta" style="whiteSpace=wrap;html=1;" parent="1" vertex="1">
          <mxGeometry x="110" y="480" width="70" height="40" as="geometry" />
        </mxCell>
        <mxCell id="lrSbImKOXPvJsdLINHKg-28" value="" style="edgeStyle=orthogonalEdgeStyle;rounded=0;orthogonalLoop=1;jettySize=auto;html=1;" parent="1" source="lrSbImKOXPvJsdLINHKg-20" target="lrSbImKOXPvJsdLINHKg-11" edge="1">
          <mxGeometry relative="1" as="geometry">
            <Array as="points">
              <mxPoint x="225" y="460" />
              <mxPoint x="210" y="460" />
            </Array>
          </mxGeometry>
        </mxCell>
        <mxCell id="lrSbImKOXPvJsdLINHKg-46" style="edgeStyle=orthogonalEdgeStyle;rounded=0;orthogonalLoop=1;jettySize=auto;html=1;" parent="1" source="lrSbImKOXPvJsdLINHKg-20" edge="1">
          <mxGeometry relative="1" as="geometry">
            <mxPoint x="240" y="560" as="targetPoint" />
            <Array as="points">
              <mxPoint x="210" y="540" />
              <mxPoint x="241" y="540" />
            </Array>
          </mxGeometry>
        </mxCell>
        <mxCell id="lrSbImKOXPvJsdLINHKg-49" style="edgeStyle=orthogonalEdgeStyle;rounded=0;orthogonalLoop=1;jettySize=auto;html=1;" parent="1" source="lrSbImKOXPvJsdLINHKg-20" edge="1">
          <mxGeometry relative="1" as="geometry">
            <mxPoint x="225" y="610" as="targetPoint" />
          </mxGeometry>
        </mxCell>
        <mxCell id="lrSbImKOXPvJsdLINHKg-20" value="link" style="whiteSpace=wrap;html=1;" parent="1" vertex="1">
          <mxGeometry x="190" y="480" width="70" height="40" as="geometry" />
        </mxCell>
        <mxCell id="lrSbImKOXPvJsdLINHKg-21" value="title" style="whiteSpace=wrap;html=1;" parent="1" vertex="1">
          <mxGeometry x="280" y="480" width="70" height="40" as="geometry" />
        </mxCell>
        <mxCell id="lrSbImKOXPvJsdLINHKg-23" style="edgeStyle=orthogonalEdgeStyle;rounded=0;orthogonalLoop=1;jettySize=auto;html=1;entryX=0.142;entryY=1;entryDx=0;entryDy=0;entryPerimeter=0;" parent="1" source="lrSbImKOXPvJsdLINHKg-19" target="lrSbImKOXPvJsdLINHKg-11" edge="1">
          <mxGeometry relative="1" as="geometry" />
        </mxCell>
        <mxCell id="lrSbImKOXPvJsdLINHKg-35" value="attribute: &lt;br&gt;charset" style="text;html=1;align=center;verticalAlign=middle;resizable=0;points=[];autosize=1;strokeColor=none;fillColor=none;" parent="1" vertex="1">
          <mxGeometry x="-110" y="493" width="70" height="40" as="geometry" />
        </mxCell>
        <mxCell id="lrSbImKOXPvJsdLINHKg-40" value="attribute:&lt;br&gt;name&lt;span style=&quot;color: rgba(0, 0, 0, 0); font-family: monospace; font-size: 0px; text-align: start;&quot;&gt;%3CmxGraphModel%3E%3Croot%3E%3CmxCell%20id%3D%220%22%2F%3E%3CmxCell%20id%3D%221%22%20parent%3D%220%22%2F%3E%3CmxCell%20id%3D%222%22%20value%3D%22%22%20style%3D%22whiteSpace%3Dwrap%3Bhtml%3D1%3B%22%20vertex%3D%221%22%20parent%3D%221%22%3E%3CmxGeometry%20x%3D%22-70%22%20y%3D%22480%22%20width%3D%2270%22%20height%3D%2240%22%20as%3D%22geometry%22%2F%3E%3C%2FmxCell%3E%3C%2Froot%3E%3C%2FmxGraphModel%3E&lt;/span&gt;" style="text;html=1;align=center;verticalAlign=middle;resizable=0;points=[];autosize=1;strokeColor=none;fillColor=none;" parent="1" vertex="1">
          <mxGeometry x="70" y="553" width="70" height="40" as="geometry" />
        </mxCell>
        <mxCell id="lrSbImKOXPvJsdLINHKg-42" value="attribute:&lt;br&gt;content" style="text;html=1;align=center;verticalAlign=middle;resizable=0;points=[];autosize=1;strokeColor=none;fillColor=none;" parent="1" vertex="1">
          <mxGeometry x="145" y="553" width="70" height="40" as="geometry" />
        </mxCell>
        <mxCell id="lrSbImKOXPvJsdLINHKg-47" value="rel" style="text;html=1;align=center;verticalAlign=middle;resizable=0;points=[];autosize=1;strokeColor=none;fillColor=none;" parent="1" vertex="1">
          <mxGeometry x="220" y="558" width="40" height="30" as="geometry" />
        </mxCell>
        <mxCell id="lrSbImKOXPvJsdLINHKg-50" value="href" style="text;html=1;align=center;verticalAlign=middle;resizable=0;points=[];autosize=1;strokeColor=none;fillColor=none;" parent="1" vertex="1">
          <mxGeometry x="210" y="618" width="40" height="30" as="geometry" />
        </mxCell>
        <mxCell id="lrSbImKOXPvJsdLINHKg-54" value="" style="edgeStyle=orthogonalEdgeStyle;rounded=0;orthogonalLoop=1;jettySize=auto;html=1;" parent="1" source="lrSbImKOXPvJsdLINHKg-21" target="lrSbImKOXPvJsdLINHKg-53" edge="1">
          <mxGeometry relative="1" as="geometry">
            <mxPoint x="315" y="520" as="sourcePoint" />
            <mxPoint x="315" y="600" as="targetPoint" />
          </mxGeometry>
        </mxCell>
        <mxCell id="lrSbImKOXPvJsdLINHKg-53" value="text node" style="text;html=1;align=center;verticalAlign=middle;resizable=0;points=[];autosize=1;strokeColor=none;fillColor=none;" parent="1" vertex="1">
          <mxGeometry x="280" y="550" width="70" height="30" as="geometry" />
        </mxCell>
        <mxCell id="lrSbImKOXPvJsdLINHKg-59" value="" style="edgeStyle=orthogonalEdgeStyle;rounded=0;orthogonalLoop=1;jettySize=auto;html=1;" parent="1" source="lrSbImKOXPvJsdLINHKg-55" target="lrSbImKOXPvJsdLINHKg-58" edge="1">
          <mxGeometry relative="1" as="geometry" />
        </mxCell>
        <mxCell id="lrSbImKOXPvJsdLINHKg-55" value="main" style="whiteSpace=wrap;html=1;" parent="1" vertex="1">
          <mxGeometry x="630" y="470" width="100" height="50" as="geometry" />
        </mxCell>
        <mxCell id="lrSbImKOXPvJsdLINHKg-61" value="" style="edgeStyle=orthogonalEdgeStyle;rounded=0;orthogonalLoop=1;jettySize=auto;html=1;" parent="1" source="lrSbImKOXPvJsdLINHKg-58" target="lrSbImKOXPvJsdLINHKg-60" edge="1">
          <mxGeometry relative="1" as="geometry" />
        </mxCell>
        <mxCell id="lrSbImKOXPvJsdLINHKg-62" style="edgeStyle=orthogonalEdgeStyle;rounded=0;orthogonalLoop=1;jettySize=auto;html=1;entryX=0.5;entryY=0;entryDx=0;entryDy=0;" parent="1" source="lrSbImKOXPvJsdLINHKg-58" target="lrSbImKOXPvJsdLINHKg-65" edge="1">
          <mxGeometry relative="1" as="geometry">
            <mxPoint x="650" y="630" as="targetPoint" />
            <Array as="points">
              <mxPoint x="660" y="608" />
              <mxPoint x="615" y="608" />
            </Array>
          </mxGeometry>
        </mxCell>
        <mxCell id="lrSbImKOXPvJsdLINHKg-67" style="edgeStyle=orthogonalEdgeStyle;rounded=0;orthogonalLoop=1;jettySize=auto;html=1;entryX=0.5;entryY=0;entryDx=0;entryDy=0;" parent="1" source="lrSbImKOXPvJsdLINHKg-58" target="lrSbImKOXPvJsdLINHKg-68" edge="1">
          <mxGeometry relative="1" as="geometry">
            <mxPoint x="710" y="630" as="targetPoint" />
          </mxGeometry>
        </mxCell>
        <mxCell id="lrSbImKOXPvJsdLINHKg-72" value="" style="edgeStyle=orthogonalEdgeStyle;rounded=0;orthogonalLoop=1;jettySize=auto;html=1;" parent="1" source="lrSbImKOXPvJsdLINHKg-58" target="lrSbImKOXPvJsdLINHKg-71" edge="1">
          <mxGeometry relative="1" as="geometry" />
        </mxCell>
        <mxCell id="lrSbImKOXPvJsdLINHKg-58" value="section" style="whiteSpace=wrap;html=1;" parent="1" vertex="1">
          <mxGeometry x="645" y="545" width="70" height="40" as="geometry" />
        </mxCell>
        <mxCell id="lrSbImKOXPvJsdLINHKg-60" value="h1" style="whiteSpace=wrap;html=1;" parent="1" vertex="1">
          <mxGeometry x="430" y="618" width="50" height="25" as="geometry" />
        </mxCell>
        <mxCell id="lrSbImKOXPvJsdLINHKg-65" value="button" style="whiteSpace=wrap;html=1;" parent="1" vertex="1">
          <mxGeometry x="540" y="630" width="60" height="30" as="geometry" />
        </mxCell>
        <mxCell id="lrSbImKOXPvJsdLINHKg-68" value="button" style="whiteSpace=wrap;html=1;" parent="1" vertex="1">
          <mxGeometry x="715" y="630" width="60" height="30" as="geometry" />
        </mxCell>
        <mxCell id="lrSbImKOXPvJsdLINHKg-71" value="script" style="whiteSpace=wrap;html=1;" parent="1" vertex="1">
          <mxGeometry x="900" y="618" width="60" height="30" as="geometry" />
        </mxCell>
        <mxCell id="lrSbImKOXPvJsdLINHKg-80" style="edgeStyle=orthogonalEdgeStyle;rounded=0;orthogonalLoop=1;jettySize=auto;html=1;entryX=0.25;entryY=1;entryDx=0;entryDy=0;" parent="1" source="lrSbImKOXPvJsdLINHKg-79" target="lrSbImKOXPvJsdLINHKg-60" edge="1">
          <mxGeometry relative="1" as="geometry">
            <mxPoint x="390.00000000000045" y="679.9999999999998" as="sourcePoint" />
          </mxGeometry>
        </mxCell>
        <mxCell id="lrSbImKOXPvJsdLINHKg-79" value="attribute: id" style="text;html=1;align=center;verticalAlign=middle;resizable=0;points=[];autosize=1;strokeColor=none;fillColor=none;" parent="1" vertex="1">
          <mxGeometry x="330" y="660" width="80" height="30" as="geometry" />
        </mxCell>
        <mxCell id="lrSbImKOXPvJsdLINHKg-82" style="edgeStyle=orthogonalEdgeStyle;rounded=0;orthogonalLoop=1;jettySize=auto;html=1;entryX=0.5;entryY=1;entryDx=0;entryDy=0;" parent="1" source="lrSbImKOXPvJsdLINHKg-81" target="lrSbImKOXPvJsdLINHKg-60" edge="1">
          <mxGeometry relative="1" as="geometry" />
        </mxCell>
        <mxCell id="lrSbImKOXPvJsdLINHKg-81" value="text node" style="text;html=1;align=center;verticalAlign=middle;resizable=0;points=[];autosize=1;strokeColor=none;fillColor=none;" parent="1" vertex="1">
          <mxGeometry x="425" y="700" width="70" height="30" as="geometry" />
        </mxCell>
        <mxCell id="lrSbImKOXPvJsdLINHKg-83" value="id" style="text;html=1;align=center;verticalAlign=middle;resizable=0;points=[];autosize=1;strokeColor=none;fillColor=none;" parent="1" vertex="1">
          <mxGeometry x="480" y="730" width="30" height="30" as="geometry" />
        </mxCell>
        <mxCell id="lrSbImKOXPvJsdLINHKg-87" style="edgeStyle=orthogonalEdgeStyle;rounded=0;orthogonalLoop=1;jettySize=auto;html=1;entryX=0.25;entryY=1;entryDx=0;entryDy=0;" parent="1" source="lrSbImKOXPvJsdLINHKg-84" target="lrSbImKOXPvJsdLINHKg-65" edge="1">
          <mxGeometry relative="1" as="geometry" />
        </mxCell>
        <mxCell id="lrSbImKOXPvJsdLINHKg-84" value="onclick" style="text;html=1;align=center;verticalAlign=middle;resizable=0;points=[];autosize=1;strokeColor=none;fillColor=none;" parent="1" vertex="1">
          <mxGeometry x="500" y="708" width="60" height="30" as="geometry" />
        </mxCell>
        <mxCell id="lrSbImKOXPvJsdLINHKg-92" style="edgeStyle=orthogonalEdgeStyle;rounded=0;orthogonalLoop=1;jettySize=auto;html=1;entryX=0.5;entryY=1;entryDx=0;entryDy=0;" parent="1" source="lrSbImKOXPvJsdLINHKg-85" target="lrSbImKOXPvJsdLINHKg-65" edge="1">
          <mxGeometry relative="1" as="geometry">
            <mxPoint x="585" y="660" as="targetPoint" />
            <Array as="points">
              <mxPoint x="585" y="710" />
              <mxPoint x="586" y="710" />
              <mxPoint x="586" y="660" />
            </Array>
          </mxGeometry>
        </mxCell>
        <mxCell id="lrSbImKOXPvJsdLINHKg-85" value="type" style="text;html=1;align=center;verticalAlign=middle;resizable=0;points=[];autosize=1;strokeColor=none;fillColor=none;" parent="1" vertex="1">
          <mxGeometry x="560" y="750" width="50" height="30" as="geometry" />
        </mxCell>
        <mxCell id="lrSbImKOXPvJsdLINHKg-86" value="text node" style="text;html=1;align=center;verticalAlign=middle;resizable=0;points=[];autosize=1;strokeColor=none;fillColor=none;" parent="1" vertex="1">
          <mxGeometry x="590" y="710" width="70" height="30" as="geometry" />
        </mxCell>
        <mxCell id="lrSbImKOXPvJsdLINHKg-90" style="edgeStyle=orthogonalEdgeStyle;rounded=0;orthogonalLoop=1;jettySize=auto;html=1;entryX=0.367;entryY=1.167;entryDx=0;entryDy=0;entryPerimeter=0;" parent="1" source="lrSbImKOXPvJsdLINHKg-83" target="lrSbImKOXPvJsdLINHKg-65" edge="1">
          <mxGeometry relative="1" as="geometry" />
        </mxCell>
        <mxCell id="lrSbImKOXPvJsdLINHKg-93" style="edgeStyle=orthogonalEdgeStyle;rounded=0;orthogonalLoop=1;jettySize=auto;html=1;entryX=0.867;entryY=1.033;entryDx=0;entryDy=0;entryPerimeter=0;" parent="1" source="lrSbImKOXPvJsdLINHKg-86" target="lrSbImKOXPvJsdLINHKg-65" edge="1">
          <mxGeometry relative="1" as="geometry" />
        </mxCell>
        <mxCell id="lrSbImKOXPvJsdLINHKg-98" style="edgeStyle=orthogonalEdgeStyle;rounded=0;orthogonalLoop=1;jettySize=auto;html=1;entryX=0.25;entryY=1;entryDx=0;entryDy=0;" parent="1" source="lrSbImKOXPvJsdLINHKg-94" target="lrSbImKOXPvJsdLINHKg-68" edge="1">
          <mxGeometry relative="1" as="geometry" />
        </mxCell>
        <mxCell id="lrSbImKOXPvJsdLINHKg-94" value="onclick" style="text;html=1;align=center;verticalAlign=middle;resizable=0;points=[];autosize=1;strokeColor=none;fillColor=none;" parent="1" vertex="1">
          <mxGeometry x="710" y="700" width="60" height="30" as="geometry" />
        </mxCell>
        <mxCell id="lrSbImKOXPvJsdLINHKg-100" style="edgeStyle=orthogonalEdgeStyle;rounded=0;orthogonalLoop=1;jettySize=auto;html=1;entryX=0.75;entryY=1;entryDx=0;entryDy=0;" parent="1" source="lrSbImKOXPvJsdLINHKg-95" target="lrSbImKOXPvJsdLINHKg-68" edge="1">
          <mxGeometry relative="1" as="geometry" />
        </mxCell>
        <mxCell id="lrSbImKOXPvJsdLINHKg-95" value="type" style="text;html=1;align=center;verticalAlign=middle;resizable=0;points=[];autosize=1;strokeColor=none;fillColor=none;" parent="1" vertex="1">
          <mxGeometry x="760" y="730" width="50" height="30" as="geometry" />
        </mxCell>
        <mxCell id="lrSbImKOXPvJsdLINHKg-96" value="text node" style="text;html=1;align=center;verticalAlign=middle;resizable=0;points=[];autosize=1;strokeColor=none;fillColor=none;" parent="1" vertex="1">
          <mxGeometry x="790" y="700" width="70" height="30" as="geometry" />
        </mxCell>
        <mxCell id="lrSbImKOXPvJsdLINHKg-99" style="edgeStyle=orthogonalEdgeStyle;rounded=0;orthogonalLoop=1;jettySize=auto;html=1;entryX=0;entryY=1;entryDx=0;entryDy=0;" parent="1" source="lrSbImKOXPvJsdLINHKg-97" target="lrSbImKOXPvJsdLINHKg-68" edge="1">
          <mxGeometry relative="1" as="geometry" />
        </mxCell>
        <mxCell id="lrSbImKOXPvJsdLINHKg-97" value="id" style="text;html=1;align=center;verticalAlign=middle;resizable=0;points=[];autosize=1;strokeColor=none;fillColor=none;" parent="1" vertex="1">
          <mxGeometry x="680" y="712" width="30" height="30" as="geometry" />
        </mxCell>
        <mxCell id="lrSbImKOXPvJsdLINHKg-101" style="edgeStyle=orthogonalEdgeStyle;rounded=0;orthogonalLoop=1;jettySize=auto;html=1;entryX=0.867;entryY=1.067;entryDx=0;entryDy=0;entryPerimeter=0;" parent="1" source="lrSbImKOXPvJsdLINHKg-96" target="lrSbImKOXPvJsdLINHKg-68" edge="1">
          <mxGeometry relative="1" as="geometry" />
        </mxCell>
        <mxCell id="lrSbImKOXPvJsdLINHKg-105" value="" style="edgeStyle=orthogonalEdgeStyle;rounded=0;orthogonalLoop=1;jettySize=auto;html=1;" parent="1" source="lrSbImKOXPvJsdLINHKg-104" target="lrSbImKOXPvJsdLINHKg-71" edge="1">
          <mxGeometry relative="1" as="geometry" />
        </mxCell>
        <mxCell id="lrSbImKOXPvJsdLINHKg-104" value="attribute:&lt;br&gt;src" style="text;html=1;align=center;verticalAlign=middle;resizable=0;points=[];autosize=1;strokeColor=none;fillColor=none;" parent="1" vertex="1">
          <mxGeometry x="895" y="683" width="70" height="40" as="geometry" />
        </mxCell>
      </root>
    </mxGraphModel>
  </diagram>
</mxfile>
